<svg xmlns="http://www.w3.org/2000/svg" viewBox="0 0 48 48" width="48" height="48">
  <!-- database cylinder -->
  <ellipse cx="24" cy="10" rx="14" ry="5" fill="#6C5CE7"/>
  <path d="M10 10v28c0 2.76 6.27 5 14 5s14-2.24 14-5V10" fill="#4A3CB8"/>
  <ellipse cx="24" cy="10" rx="14" ry="5" fill="#6C5CE7"/>
  <path d="M10 22c0 2.76 6.27 5 14 5s14-2.24 14-5" stroke="#6C5CE7" stroke-width="2" fill="none"/>
  <path d="M10 34c0 2.76 6.27 5 14 5s14-2.24 14-5" stroke="#6C5CE7" stroke-width="2" fill="none"/>
  <!-- upload arrow (top-left) -->
  <circle cx="12" cy="16" r="6" fill="white" stroke="#E0DBFF" stroke-width="1"/>
  <path d="M12 19V13M9 15.5L12 12.5L15 15.5" stroke="#6C5CE7" stroke-width="2" stroke-linecap="round" stroke-linejoin="round"/>
  <!-- download arrow (bottom-right) -->
  <circle cx="36" cy="32" r="6" fill="white" stroke="#E0DBFF" stroke-width="1"/>
  <path d="M36 29V35M33 32.5L36 35.5L39 32.5" stroke="#6C5CE7" stroke-width="2" stroke-linecap="round" stroke-linejoin="round"/>
</svg>
